# Blender 5.1.0
# www.blender.org
mtllib thunder.mtl
o Cylinder
v 0.000000 0.034018 -0.712001
v -0.000000 2.034018 -2.420182
v 0.142649 0.034018 -0.698320
v 0.455885 2.034018 -2.373679
v 0.279816 0.034018 -0.657803
v 0.894250 2.034018 -2.235957
v 0.406230 0.034018 -0.592007
v 1.298249 2.034018 -2.012308
v 0.517032 0.034018 -0.503461
v 1.652358 2.034018 -1.711327
v 0.607966 0.034018 -0.395567
v 1.942967 2.034018 -1.344581
v 0.675535 0.034018 -0.272471
v 2.158910 2.034018 -0.926164
v 0.717145 0.034018 -0.138904
v 2.291887 2.034018 -0.472154
v 0.731194 0.034018 -0.000000
v 2.336787 2.034018 0.000000
v 0.717145 0.034018 0.138904
v 2.291887 2.034018 0.472154
v 0.675535 0.034018 0.272471
v 2.158910 2.034018 0.926164
v 0.607966 0.034018 0.395566
v 1.942967 2.034018 1.344581
v 0.517032 0.034018 0.503461
v 1.652358 2.034018 1.711327
v 0.406230 0.034018 0.592007
v 1.298249 2.034018 2.012308
v 0.279816 0.034018 0.657803
v 0.894250 2.034018 2.235957
v 0.142649 0.034018 0.698320
v 0.455885 2.034018 2.373679
v 0.000000 0.034018 0.712001
v -0.000000 2.034018 2.420182
v -0.142649 0.034018 0.698320
v -0.455885 2.034018 2.373679
v -0.279816 0.034018 0.657803
v -0.894250 2.034018 2.235957
v -0.406230 0.034018 0.592007
v -1.298249 2.034018 2.012308
v -0.517032 0.034018 0.503461
v -1.652358 2.034018 1.711327
v -0.607966 0.034018 0.395566
v -1.942967 2.034018 1.344581
v -0.675535 0.034018 0.272471
v -2.158910 2.034018 0.926164
v -0.717145 0.034018 0.138904
v -2.291887 2.034018 0.472154
v -0.731194 0.034018 -0.000000
v -2.336787 2.034018 0.000000
v -0.717145 0.034018 -0.138904
v -2.291887 2.034018 -0.472154
v -0.675535 0.034018 -0.272471
v -2.158910 2.034018 -0.926164
v -0.607966 0.034018 -0.395567
v -1.942967 2.034018 -1.344581
v -0.517032 0.034018 -0.503461
v -1.652358 2.034018 -1.711327
v -0.406230 0.034018 -0.592007
v -1.298249 2.034018 -2.012308
v -0.279816 0.034018 -0.657803
v -0.894250 2.034018 -2.235957
v -0.142649 0.034018 -0.698320
v -0.455885 2.034018 -2.373679
v 0.646558 15.343102 -0.092810
v 2.646558 15.343102 -0.092810
v -0.075234 0.008754 -0.000313
v 0.283158 0.044388 0.200516
v -1.246206 0.877535 0.105335
v -0.346471 2.152503 0.003892
v -0.475142 3.246720 0.038800
v 0.913876 4.123022 -0.197113
v 0.913876 5.115570 -0.197113
v 0.909517 6.103064 -0.196352
v 0.751025 6.911827 -0.168648
v -0.475142 8.209460 0.038800
v -0.349013 9.106139 0.005127
v -1.042690 10.066583 0.092378
v -0.892910 10.939368 0.068849
v -0.897745 11.931096 0.069803
v -0.897745 12.923644 0.069803
v 0.619437 14.478990 -0.088824
v 2.619437 14.478990 -0.088824
v 0.669611 12.999354 0.148957
v 0.669611 12.006806 0.148957
v 0.669611 11.014258 0.148957
v 0.669611 10.021710 0.148957
v 1.650987 9.106140 0.005127
v 1.524858 8.209461 0.038800
v 2.307816 7.026180 -0.076933
v 2.906007 6.012148 -0.197707
v 2.283860 5.112999 -0.070485
v 2.713058 4.123022 -0.156732
v 1.524858 3.246721 0.038800
v 1.653529 2.152503 0.003892
v 0.753794 0.877535 0.105335
v -1.026862 0.000000 1.000000
v 0.973138 0.000000 1.000000
v -1.026862 0.000000 -1.000000
v 0.973138 0.000000 -1.000000
vn -0.0000 -0.6493 -0.7605
vn 0.1517 -0.6484 -0.7460
vn 0.1509 -0.6484 -0.7462
vn 0.2977 -0.6459 -0.7029
vn 0.2963 -0.6460 -0.7035
vn 0.4324 -0.6422 -0.6329
vn 0.4308 -0.6423 -0.6340
vn 0.5506 -0.6378 -0.5385
vn 0.5491 -0.6379 -0.5400
vn 0.6478 -0.6334 -0.4233
vn 0.6467 -0.6334 -0.4249
vn 0.7201 -0.6296 -0.2917
vn 0.7195 -0.6296 -0.2931
vn 0.7646 -0.6271 -0.1488
vn 0.7645 -0.6271 -0.1495
vn 0.7797 -0.6262 -0.0000
vn 0.7646 -0.6271 0.1488
vn 0.7645 -0.6271 0.1495
vn 0.7201 -0.6296 0.2917
vn 0.7195 -0.6296 0.2931
vn 0.6478 -0.6334 0.4233
vn 0.6467 -0.6334 0.4249
vn 0.5506 -0.6378 0.5385
vn 0.5491 -0.6379 0.5400
vn 0.4324 -0.6422 0.6329
vn 0.4308 -0.6423 0.6340
vn 0.2977 -0.6459 0.7029
vn 0.2963 -0.6460 0.7035
vn 0.1517 -0.6484 0.7460
vn 0.1509 -0.6484 0.7462
vn -0.0000 -0.6493 0.7605
vn -0.1517 -0.6484 0.7460
vn -0.1509 -0.6484 0.7462
vn -0.2977 -0.6459 0.7029
vn -0.2963 -0.6460 0.7035
vn -0.4324 -0.6422 0.6329
vn -0.4308 -0.6423 0.6340
vn -0.5506 -0.6378 0.5385
vn -0.5491 -0.6379 0.5400
vn -0.6478 -0.6334 0.4233
vn -0.6467 -0.6334 0.4249
vn -0.7201 -0.6296 0.2917
vn -0.7195 -0.6296 0.2931
vn -0.7646 -0.6271 0.1488
vn -0.7645 -0.6271 0.1495
vn -0.7797 -0.6262 -0.0000
vn -0.7646 -0.6271 -0.1488
vn -0.7645 -0.6271 -0.1495
vn -0.7201 -0.6296 -0.2917
vn -0.7195 -0.6296 -0.2931
vn -0.6478 -0.6334 -0.4233
vn -0.6467 -0.6334 -0.4249
vn -0.5506 -0.6378 -0.5385
vn -0.5491 -0.6379 -0.5400
vn -0.4324 -0.6422 -0.6329
vn -0.4308 -0.6423 -0.6340
vn -0.2977 -0.6459 -0.7029
vn -0.2963 -0.6460 -0.7035
vn -0.1517 -0.6484 -0.7460
vn -0.1509 -0.6484 -0.7462
vn -0.0000 -0.0046 -1.0000
vn 0.0842 0.0408 -0.9956
vn 0.0339 -0.0312 -0.9989
vn -0.0000 -0.0309 -0.9995
vn 0.0030 -0.0497 -0.9988
vn 0.0267 -0.1376 -0.9901
vn 0.0438 -0.0119 -0.9990
vn 0.0295 0.0140 -0.9995
vn 0.0224 0.1244 -0.9920
vn 0.0076 0.0293 -0.9995
vn 0.0094 0.0608 -0.9981
vn 0.0321 0.0443 -0.9985
vn 0.0460 -0.0083 -0.9989
vn 0.0506 0.0003 -0.9987
vn 0.0425 -0.0505 -0.9978
vn 0.0153 -0.0973 -0.9951
vn 0.0073 -0.0492 -0.9988
vn 0.0348 -0.0987 -0.9945
vn 0.0465 -0.0074 -0.9989
vn 0.0266 0.0774 -0.9966
vn 0.0058 0.0229 -0.9997
vn 0.0117 0.0649 -0.9978
vn 0.0234 0.1102 -0.9936
vn 0.0300 0.0058 -0.9995
vn 0.0435 -0.0147 -0.9989
vn 0.0378 -0.0564 -0.9977
vn 0.0062 -0.1396 -0.9902
vn -0.0000 -0.0123 -0.9999
vn 0.0276 -0.0402 -0.9988
vn -0.0000 1.0000 -0.0000
vt 1.000000 0.000000
vt 1.000000 1.000000
vt 0.968750 1.000000
vt 0.968750 0.000000
vt 0.937500 1.000000
vt 0.937500 0.000000
vt 0.906250 1.000000
vt 0.906250 0.000000
vt 0.875000 1.000000
vt 0.875000 0.000000
vt 0.843750 1.000000
vt 0.843750 0.000000
vt 0.812500 1.000000
vt 0.812500 0.000000
vt 0.781250 1.000000
vt 0.781250 0.000000
vt 0.750000 1.000000
vt 0.750000 0.000000
vt 0.718750 1.000000
vt 0.718750 0.000000
vt 0.687500 1.000000
vt 0.687500 0.000000
vt 0.656250 1.000000
vt 0.656250 0.000000
vt 0.625000 1.000000
vt 0.625000 0.000000
vt 0.593750 1.000000
vt 0.593750 0.000000
vt 0.562500 1.000000
vt 0.562500 0.000000
vt 0.531250 1.000000
vt 0.531250 0.000000
vt 0.500000 1.000000
vt 0.500000 0.000000
vt 0.468750 1.000000
vt 0.468750 0.000000
vt 0.437500 1.000000
vt 0.437500 0.000000
vt 0.406250 1.000000
vt 0.406250 0.000000
vt 0.375000 1.000000
vt 0.375000 0.000000
vt 0.343750 1.000000
vt 0.343750 0.000000
vt 0.312500 1.000000
vt 0.312500 0.000000
vt 0.281250 1.000000
vt 0.281250 0.000000
vt 0.250000 1.000000
vt 0.250000 0.000000
vt 0.218750 1.000000
vt 0.218750 0.000000
vt 0.187500 1.000000
vt 0.187500 0.000000
vt 0.156250 1.000000
vt 0.156250 0.000000
vt 0.125000 1.000000
vt 0.125000 0.000000
vt 0.093750 1.000000
vt 0.093750 0.000000
vt 0.062500 1.000000
vt 0.062500 0.000000
vt 0.031250 1.000000
vt 0.031250 0.000000
vt 0.000000 1.000000
vt 0.000000 0.000000
vt 0.000000 0.924569
vt 1.000000 0.924569
vt 1.000000 0.057903
vt 0.000000 0.057903
vt 1.000000 0.124569
vt 0.000000 0.124569
vt 1.000000 0.191236
vt 0.000000 0.191236
vt 1.000000 0.257903
vt 0.000000 0.257903
vt 1.000000 0.324569
vt 0.000000 0.324569
vt 1.000000 0.391236
vt 0.000000 0.391236
vt 1.000000 0.457903
vt 0.000000 0.457903
vt 1.000000 0.524569
vt 0.000000 0.524569
vt 1.000000 0.591236
vt 0.000000 0.591236
vt 1.000000 0.657902
vt 0.000000 0.657902
vt 1.000000 0.724569
vt 0.000000 0.724569
vt 1.000000 0.791236
vt 0.000000 0.791236
vt 1.000000 0.857902
vt 0.000000 0.857903
s 1
usemtl Material.002
f 1/1/1 2/2/1 4/3/3 3/4/2
f 3/4/2 4/3/3 6/5/5 5/6/4
f 5/6/4 6/5/5 8/7/7 7/8/6
f 7/8/6 8/7/7 10/9/9 9/10/8
f 9/10/8 10/9/9 12/11/11 11/12/10
f 11/12/10 12/11/11 14/13/13 13/14/12
f 13/14/12 14/13/13 16/15/15 15/16/14
f 15/16/14 16/15/15 18/17/16 17/18/16
f 17/18/16 18/17/16 20/19/18 19/20/17
f 19/20/17 20/19/18 22/21/20 21/22/19
f 21/22/19 22/21/20 24/23/22 23/24/21
f 23/24/21 24/23/22 26/25/24 25/26/23
f 25/26/23 26/25/24 28/27/26 27/28/25
f 27/28/25 28/27/26 30/29/28 29/30/27
f 29/30/27 30/29/28 32/31/30 31/32/29
f 31/32/29 32/31/30 34/33/31 33/34/31
f 33/34/31 34/33/31 36/35/33 35/36/32
f 35/36/32 36/35/33 38/37/35 37/38/34
f 37/38/34 38/37/35 40/39/37 39/40/36
f 39/40/36 40/39/37 42/41/39 41/42/38
f 41/42/38 42/41/39 44/43/41 43/44/40
f 43/44/40 44/43/41 46/45/43 45/46/42
f 45/46/42 46/45/43 48/47/45 47/48/44
f 47/48/44 48/47/45 50/49/46 49/50/46
f 49/50/46 50/49/46 52/51/48 51/52/47
f 51/52/47 52/51/48 54/53/50 53/54/49
f 53/54/49 54/53/50 56/55/52 55/56/51
f 55/56/51 56/55/52 58/57/54 57/58/53
f 57/58/53 58/57/54 60/59/56 59/60/55
f 59/60/55 60/59/56 62/61/58 61/62/57
f 61/62/57 62/61/58 64/63/60 63/64/59
f 63/64/59 64/63/60 2/65/1 1/66/1
usemtl Material.001
f 69/67/63 96/68/89 68/2/62 67/65/62
f 65/66/61 66/1/61 83/69/77 82/70/76
f 82/70/76 83/69/77 84/71/78 81/72/75
f 81/72/75 84/71/78 85/73/74 80/74/74
f 80/74/74 85/73/74 86/75/79 79/76/73
f 79/76/73 86/75/79 87/77/80 78/78/72
f 78/78/72 87/77/80 88/79/81 77/80/71
f 77/80/71 88/79/81 89/81/82 76/82/70
f 76/82/70 89/81/82 90/83/83 75/84/69
f 75/84/69 90/83/83 91/85/84 74/86/68
f 74/86/68 91/85/84 92/87/85 73/88/67
f 73/88/67 92/87/85 93/89/86 72/90/66
f 72/90/66 93/89/86 94/91/87 71/92/65
f 71/92/65 94/91/87 95/93/88 70/94/64
f 70/94/64 95/93/88 96/68/89 69/67/63
usemtl Material.003
f 97/66/90 98/1/90 100/2/90 99/65/90
