# Blender 5.1.0
# www.blender.org
mtllib Untitled.mtl
o Cylinder
v 0.000000 0.034018 -0.712001
v -0.000000 2.034018 -2.420182
v 0.142649 0.034018 -0.698320
v 0.455885 2.034018 -2.373679
v 0.279816 0.034018 -0.657803
v 0.894250 2.034018 -2.235957
v 0.406230 0.034018 -0.592007
v 1.298249 2.034018 -2.012308
v 0.517032 0.034018 -0.503461
v 1.652358 2.034018 -1.711327
v 0.607966 0.034018 -0.395567
v 1.942967 2.034018 -1.344581
v 0.675535 0.034018 -0.272471
v 2.158910 2.034018 -0.926164
v 0.717145 0.034018 -0.138904
v 2.291887 2.034018 -0.472154
v 0.731194 0.034018 -0.000000
v 2.336787 2.034018 0.000000
v 0.717145 0.034018 0.138904
v 2.291887 2.034018 0.472154
v 0.675535 0.034018 0.272471
v 2.158910 2.034018 0.926164
v 0.607966 0.034018 0.395566
v 1.942967 2.034018 1.344581
v 0.517032 0.034018 0.503461
v 1.652358 2.034018 1.711327
v 0.406230 0.034018 0.592007
v 1.298249 2.034018 2.012308
v 0.279816 0.034018 0.657803
v 0.894250 2.034018 2.235957
v 0.142649 0.034018 0.698320
v 0.455885 2.034018 2.373679
v 0.000000 0.034018 0.712001
v -0.000000 2.034018 2.420182
v -0.142649 0.034018 0.698320
v -0.455885 2.034018 2.373679
v -0.279816 0.034018 0.657803
v -0.894250 2.034018 2.235957
v -0.406230 0.034018 0.592007
v -1.298249 2.034018 2.012308
v -0.517032 0.034018 0.503461
v -1.652358 2.034018 1.711327
v -0.607966 0.034018 0.395566
v -1.942967 2.034018 1.344581
v -0.675535 0.034018 0.272471
v -2.158910 2.034018 0.926164
v -0.717145 0.034018 0.138904
v -2.291887 2.034018 0.472154
v -0.731194 0.034018 -0.000000
v -2.336787 2.034018 0.000000
v -0.717145 0.034018 -0.138904
v -2.291887 2.034018 -0.472154
v -0.675535 0.034018 -0.272471
v -2.158910 2.034018 -0.926164
v -0.607966 0.034018 -0.395567
v -1.942967 2.034018 -1.344581
v -0.517032 0.034018 -0.503461
v -1.652358 2.034018 -1.711327
v -0.406230 0.034018 -0.592007
v -1.298249 2.034018 -2.012308
v -0.279816 0.034018 -0.657803
v -0.894250 2.034018 -2.235957
v -0.142649 0.034018 -0.698320
v -0.455885 2.034018 -2.373679
v 0.588923 15.343102 -0.092810
v 2.588923 15.343102 -0.092810
v -0.075234 0.008754 -0.000313
v 0.283158 0.044388 0.200516
v -1.246206 0.877535 0.105335
v -1.828608 2.152503 0.003892
v -0.518561 3.246720 0.038800
v -1.225742 4.123022 -0.197113
v 0.105949 5.100115 -0.232595
v -0.430340 5.825457 -0.346398
v 0.187228 6.911687 -0.168648
v -0.336321 8.209460 0.038800
v -0.669328 9.106139 0.005127
v -1.027913 10.066583 0.092378
v -0.818288 10.939368 0.068849
v -0.478626 11.931096 0.069803
v -0.886310 12.923644 0.069803
v 0.130316 14.478990 -0.088824
v 2.130316 14.478990 -0.088824
v 0.679905 12.999354 0.148957
v 1.054572 12.006806 0.148957
v 0.760686 11.014258 0.148957
v 0.733346 10.021710 0.148957
v 1.097213 9.106140 0.005127
v 1.371367 8.209461 0.038800
v 1.947958 7.026180 -0.076933
v 1.399234 6.012148 -0.197707
v 1.679663 5.112999 -0.070485
v 0.573440 4.123022 -0.156732
v 1.498998 3.246721 0.038800
v 0.171392 2.152503 0.003892
v 0.753794 0.877535 0.105335
v -1.026862 0.000000 1.000000
v 0.973138 0.000000 1.000000
v -1.026862 0.000000 -1.000000
v 0.973138 0.000000 -1.000000
vn -0.0000 0.6493 0.7605
vn -0.1517 0.6484 0.7460
vn -0.1509 0.6484 0.7462
vn -0.2977 0.6459 0.7029
vn -0.2963 0.6460 0.7035
vn -0.4324 0.6422 0.6329
vn -0.4308 0.6423 0.6340
vn -0.5506 0.6378 0.5385
vn -0.5491 0.6379 0.5400
vn -0.6478 0.6334 0.4233
vn -0.6467 0.6334 0.4249
vn -0.7201 0.6296 0.2917
vn -0.7195 0.6296 0.2931
vn -0.7646 0.6271 0.1488
vn -0.7645 0.6271 0.1495
vn -0.7797 0.6262 -0.0000
vn -0.7646 0.6271 -0.1488
vn -0.7645 0.6271 -0.1495
vn -0.7201 0.6296 -0.2917
vn -0.7195 0.6296 -0.2931
vn -0.6478 0.6334 -0.4233
vn -0.6467 0.6334 -0.4249
vn -0.5506 0.6378 -0.5385
vn -0.5491 0.6379 -0.5400
vn -0.4324 0.6422 -0.6329
vn -0.4308 0.6423 -0.6340
vn -0.2977 0.6459 -0.7029
vn -0.2963 0.6460 -0.7035
vn -0.1517 0.6484 -0.7460
vn -0.1509 0.6484 -0.7462
vn -0.0000 0.6493 -0.7605
vn 0.1517 0.6484 -0.7460
vn 0.1509 0.6484 -0.7462
vn 0.2977 0.6459 -0.7029
vn 0.2963 0.6460 -0.7035
vn 0.4324 0.6422 -0.6329
vn 0.4308 0.6423 -0.6340
vn 0.5506 0.6378 -0.5385
vn 0.5491 0.6379 -0.5400
vn 0.6478 0.6334 -0.4233
vn 0.6467 0.6334 -0.4249
vn 0.7201 0.6296 -0.2917
vn 0.7195 0.6296 -0.2931
vn 0.7646 0.6271 -0.1488
vn 0.7645 0.6271 -0.1495
vn 0.7797 0.6262 -0.0000
vn 0.7646 0.6271 0.1488
vn 0.7645 0.6271 0.1495
vn 0.7201 0.6296 0.2917
vn 0.7195 0.6296 0.2931
vn 0.6478 0.6334 0.4233
vn 0.6467 0.6334 0.4249
vn 0.5506 0.6378 0.5385
vn 0.5491 0.6379 0.5400
vn 0.4324 0.6422 0.6329
vn 0.4308 0.6423 0.6340
vn 0.2977 0.6459 0.7029
vn 0.2963 0.6460 0.7035
vn 0.1517 0.6484 0.7460
vn 0.1509 0.6484 0.7462
vn -0.0000 -0.0046 -1.0000
vn 0.0842 0.0408 -0.9956
vn 0.0205 -0.0502 -0.9985
vn -0.0000 -0.0373 -0.9993
vn 0.0050 -0.0939 -0.9956
vn 0.0310 -0.1558 -0.9873
vn 0.0770 -0.0721 -0.9944
vn 0.0780 0.0010 -0.9970
vn 0.0407 0.1229 -0.9916
vn 0.0083 0.0299 -0.9995
vn 0.0108 0.0647 -0.9978
vn 0.0302 0.0508 -0.9983
vn 0.0453 -0.0171 -0.9988
vn 0.0510 0.0016 -0.9987
vn 0.0393 -0.0543 -0.9977
vn 0.0167 -0.1012 -0.9947
vn 0.0071 -0.0453 -0.9989
vn 0.0363 -0.0750 -0.9965
vn 0.0510 0.0020 -0.9987
vn 0.0471 -0.0168 -0.9987
vn 0.0281 0.0638 -0.9976
vn 0.0069 0.0276 -0.9996
vn 0.0133 0.0708 -0.9974
vn 0.0380 0.1251 -0.9914
vn 0.0752 0.0157 -0.9970
vn 0.0831 -0.0805 -0.9933
vn 0.0355 -0.1393 -0.9896
vn 0.0055 -0.1072 -0.9942
vn -0.0000 -0.0181 -0.9998
vn 0.0406 -0.0216 -0.9989
vn -0.0000 1.0000 -0.0000
vt 1.000000 0.000000
vt 0.968750 0.000000
vt 0.968750 1.000000
vt 1.000000 1.000000
vt 0.937500 0.000000
vt 0.937500 1.000000
vt 0.906250 0.000000
vt 0.906250 1.000000
vt 0.875000 0.000000
vt 0.875000 1.000000
vt 0.843750 0.000000
vt 0.843750 1.000000
vt 0.812500 0.000000
vt 0.812500 1.000000
vt 0.781250 0.000000
vt 0.781250 1.000000
vt 0.750000 0.000000
vt 0.750000 1.000000
vt 0.718750 0.000000
vt 0.718750 1.000000
vt 0.687500 0.000000
vt 0.687500 1.000000
vt 0.656250 0.000000
vt 0.656250 1.000000
vt 0.625000 0.000000
vt 0.625000 1.000000
vt 0.593750 0.000000
vt 0.593750 1.000000
vt 0.562500 0.000000
vt 0.562500 1.000000
vt 0.531250 0.000000
vt 0.531250 1.000000
vt 0.500000 0.000000
vt 0.500000 1.000000
vt 0.468750 0.000000
vt 0.468750 1.000000
vt 0.437500 0.000000
vt 0.437500 1.000000
vt 0.406250 0.000000
vt 0.406250 1.000000
vt 0.375000 0.000000
vt 0.375000 1.000000
vt 0.343750 0.000000
vt 0.343750 1.000000
vt 0.312500 0.000000
vt 0.312500 1.000000
vt 0.281250 0.000000
vt 0.281250 1.000000
vt 0.250000 0.000000
vt 0.250000 1.000000
vt 0.218750 0.000000
vt 0.218750 1.000000
vt 0.187500 0.000000
vt 0.187500 1.000000
vt 0.156250 0.000000
vt 0.156250 1.000000
vt 0.125000 0.000000
vt 0.125000 1.000000
vt 0.093750 0.000000
vt 0.093750 1.000000
vt 0.062500 0.000000
vt 0.062500 1.000000
vt 0.031250 0.000000
vt 0.031250 1.000000
vt 0.000000 0.000000
vt 0.000000 1.000000
vt 0.000000 0.924569
vt 1.000000 0.924569
vt 1.000000 0.057903
vt 0.000000 0.057903
vt 1.000000 0.124569
vt 0.000000 0.124569
vt 1.000000 0.191236
vt 0.000000 0.191236
vt 1.000000 0.257903
vt 0.000000 0.257903
vt 1.000000 0.324569
vt 0.000000 0.324569
vt 1.000000 0.391236
vt 0.000000 0.391236
vt 1.000000 0.457903
vt 0.000000 0.457903
vt 1.000000 0.524569
vt 0.000000 0.524569
vt 1.000000 0.591236
vt 0.000000 0.591236
vt 1.000000 0.657902
vt 0.000000 0.657902
vt 1.000000 0.724569
vt 0.000000 0.724569
vt 1.000000 0.791236
vt 0.000000 0.791236
vt 1.000000 0.857902
vt 0.000000 0.857903
s 1
usemtl Material.002
f 1/1/1 3/2/2 4/3/3 2/4/1
f 3/2/2 5/5/4 6/6/5 4/3/3
f 5/5/4 7/7/6 8/8/7 6/6/5
f 7/7/6 9/9/8 10/10/9 8/8/7
f 9/9/8 11/11/10 12/12/11 10/10/9
f 11/11/10 13/13/12 14/14/13 12/12/11
f 13/13/12 15/15/14 16/16/15 14/14/13
f 15/15/14 17/17/16 18/18/16 16/16/15
f 17/17/16 19/19/17 20/20/18 18/18/16
f 19/19/17 21/21/19 22/22/20 20/20/18
f 21/21/19 23/23/21 24/24/22 22/22/20
f 23/23/21 25/25/23 26/26/24 24/24/22
f 25/25/23 27/27/25 28/28/26 26/26/24
f 27/27/25 29/29/27 30/30/28 28/28/26
f 29/29/27 31/31/29 32/32/30 30/30/28
f 31/31/29 33/33/31 34/34/31 32/32/30
f 33/33/31 35/35/32 36/36/33 34/34/31
f 35/35/32 37/37/34 38/38/35 36/36/33
f 37/37/34 39/39/36 40/40/37 38/38/35
f 39/39/36 41/41/38 42/42/39 40/40/37
f 41/41/38 43/43/40 44/44/41 42/42/39
f 43/43/40 45/45/42 46/46/43 44/44/41
f 45/45/42 47/47/44 48/48/45 46/46/43
f 47/47/44 49/49/46 50/50/46 48/48/45
f 49/49/46 51/51/47 52/52/48 50/50/46
f 51/51/47 53/53/49 54/54/50 52/52/48
f 53/53/49 55/55/51 56/56/52 54/54/50
f 55/55/51 57/57/53 58/58/54 56/56/52
f 57/57/53 59/59/55 60/60/56 58/58/54
f 59/59/55 61/61/57 62/62/58 60/60/56
f 61/61/57 63/63/59 64/64/60 62/62/58
f 63/63/59 1/65/1 2/66/1 64/64/60
usemtl Material.001
f 69/67/63 96/68/90 68/4/62 67/66/62
f 65/65/61 66/1/61 83/69/77 82/70/76
f 82/70/76 83/69/77 84/71/78 81/72/75
f 81/72/75 84/71/78 85/73/79 80/74/74
f 80/74/74 85/73/79 86/75/80 79/76/73
f 79/76/73 86/75/80 87/77/81 78/78/72
f 78/78/72 87/77/81 88/79/82 77/80/71
f 77/80/71 88/79/82 89/81/83 76/82/70
f 76/82/70 89/81/83 90/83/84 75/84/69
f 75/84/69 90/83/84 91/85/85 74/86/68
f 74/86/68 91/85/85 92/87/86 73/88/67
f 73/88/67 92/87/86 93/89/87 72/90/66
f 72/90/66 93/89/87 94/91/88 71/92/65
f 71/92/65 94/91/88 95/93/89 70/94/64
f 70/94/64 95/93/89 96/68/90 69/67/63
usemtl Material.003
f 97/65/91 98/1/91 100/4/91 99/66/91
